<?xml version="1.0" encoding="utf-8"?>
<!-- Generator: Adobe Illustrator 27.0.0, SVG Export Plug-In . SVG Version: 6.00 Build 0)  -->
<svg version="1.1" id="Warstwa_1" xmlns="http://www.w3.org/2000/svg" xmlns:xlink="http://www.w3.org/1999/xlink" x="0px" y="0px"
	 viewBox="0 0 400 120" style="enable-background:new 0 0 400 120;" xml:space="preserve">
<style type="text/css">
	.st0{fill:#3C3C3B;}
	.st1{fill:#0093FF;}
</style>
<g>
	<path class="st0" d="M62.8,107.6L62.8,107.6l-2.7,12.2l-7.8-10.4c-0.5-2-1.2-3.9-2.1-5.9c-1.3-2.9-2.9-5.7-4.8-8.4
		c-0.4-0.6-0.8-1.1-1.2-1.6c-2.1-2.7-4.5-5.4-7.3-7.8c-0.1-0.1-0.1-0.1-0.2-0.2c0.7-2.1,2.4-6.5,5.7-9.1l0,0
		c4.6,3.9,8.5,8.2,11.7,12.7c0.5,0.7,1,1.4,1.5,2.2c1.9,2.9,3.5,6,4.8,9.2c0.6,1.4,1.1,2.8,1.5,4.2
		C62.4,105.7,62.6,106.7,62.8,107.6L62.8,107.6z"/>
	<path class="st1" d="M86.2,85c0.5,4,0.3,8.1-0.6,11.9c0,0.1,0,0.1,0,0.1c0,0.1-0.1,0.2-0.1,0.3c-0.8,3.2-2.1,6.2-3.8,9
		c-2-1.7-4.2-3.1-6.6-4.2c-1.7-0.8-3.5-1.4-5.4-1.9c-0.6-0.1-1.2-0.3-1.8-0.4c-0.9-0.2-1.8-0.3-2.8-0.4c-1.5-5.9-4.9-9.8-4.9-9.8
		c0.1,0,0.2,0,0.3,0c0.3,0,0.7,0,1,0c0.3,0,0.7,0,1,0c4.4,0,8.8,0.8,13,2.3c0.2-1.3,0.2-2.6,0.1-3.9c0-0.2,0-0.3,0-0.4
		c-0.1-1.4-0.3-2.9-0.7-4.3v0c-0.2-0.8-0.5-1.6-0.8-2.4c-0.3-0.8-0.7-1.6-1.1-2.3l0,0c-0.2-0.4-0.4-0.8-0.7-1.2
		c-0.1-0.1-0.2-0.3-0.2-0.4c-2.9-4.4-7.2-7.6-12-9.1c-0.2-0.1-0.3-0.1-0.5-0.1c-3.4-1-7.1-1.2-10.7-0.5c-0.2,0-0.3,0.1-0.5,0.1
		c-1.2,0.3-2.4,0.6-3.6,1.1c-0.5,0.2-1,0.4-1.5,0.7c-0.5,0.3-1,0.5-1.5,0.8c-1.2,0.7-2.3,1.5-3.4,2.4l-0.4,0.3
		c-0.1,0.1-0.2,0.2-0.2,0.2c-2.3,2.2-4.1,4.7-5.3,7.6c-0.1,0.2-0.2,0.4-0.3,0.6c-0.1,0.2-0.1,0.4-0.2,0.6c0,0.1-0.1,0.3-0.2,0.4V82
		c-0.1,0.4-0.3,0.9-0.4,1.3c-0.6,2.2-0.9,4.5-0.8,6.8c0.1,2.5,0.6,5,1.6,7.5c0.5,1.3,1.1,2.4,1.8,3.6c0.5-0.5,1-1,1.5-1.4
		c1.2-1.1,2.5-2.1,3.7-3c3.2,2.4,5.6,8,5.6,8c-1,0.7-1.9,1.4-2.8,2.2c-0.4,0.4-0.8,0.7-1.2,1.1c-2.6,2.6-4.6,5.6-6.1,8.8
		c-2.8-1.8-5.4-4.1-7.5-6.8c-2-2.5-3.8-5.4-5-8.5c-3.4-8.4-3.1-17.4,0.2-25.1c0,0,0-0.1,0-0.1c0,0,0-0.1,0-0.1
		c0-0.1,0.1-0.2,0.1-0.2s0-0.1,0.1-0.2c1.6-3.7,3.7-6.7,5.8-9l0,0c0.1-0.1,0.2-0.2,0.3-0.3c0.1-0.1,0.2-0.2,0.2-0.2
		c0.7-0.7,1.4-1.4,2.1-2c2-1.8,4.2-3.3,6.6-4.5c0.1-0.1,0.3-0.1,0.4-0.2c0,0,0,0,0,0c-0.1-0.1-0.3-0.2-0.4-0.3h0
		c-3.1-2.1-6-4.5-8.6-7.4c-0.1-0.1-0.2-0.2-0.3-0.3c-2.3-2.6-4.4-5.6-6.1-8.8c0-0.1-0.1-0.3-0.2-0.4c-0.1,0.1-0.2,0.2-0.4,0.2
		c-3.1,2-5.9,4.3-8.5,6.9c-0.1,0.1-0.2,0.2-0.3,0.3c0.1,0.1,0.1,0.3,0.2,0.4c1.8,3.2,3.9,6.2,6.3,8.9c0.1,0.1,0.2,0.2,0.3,0.3
		c1.1,1.3,2.3,2.5,3.5,3.6l0,0c0.4,0.4,0.8,0.8,1.2,1.1c0,0,0,0,0,0c-3.5,2.8-5.4,6.1-6.5,8.5c0,0,0,0,0,0c-1.6-1.4-3.1-2.8-4.6-4.3
		c-0.1-0.1-0.2-0.2-0.3-0.3c-2.6-2.7-5-5.8-7.1-9c-0.1-0.1-0.2-0.3-0.3-0.4C4.4,55.2,2.5,51.7,1,48c0,0,0,0,0,0c0,0,0,0,0,0
		c2.4-3.1,5.2-6,8.2-8.7c0.1-0.1,0.2-0.2,0.4-0.3c2.8-2.5,5.9-4.8,9.2-6.7c0.1-0.1,0.3-0.2,0.4-0.2c2.9-1.7,6-3.2,9.2-4.6
		c0.3-0.1,0.5-0.2,0.8-0.3c0.4,2.6,1.1,5.2,2.1,7.7c0.4,0.9,0.7,1.7,1.1,2.5c0.1,0.1,0.1,0.3,0.2,0.4c1.8,3.4,4,6.4,6.7,8.9
		c0.1,0.1,0.2,0.2,0.4,0.3c2.8,2.6,6.1,4.7,9.6,6.2c0.2,0,0.3,0.1,0.4,0.2c3.3,1.3,6.8,2.2,10.4,2.4c0,0,0.8-5,3.3-11.5
		c1.8-4.7,4.3-10.2,8.1-15.2c0,0,0,0,0.1-0.1c0.8-1,1.3-2.1,1.7-3.3c0.1-0.1,0.1-0.3,0.1-0.4C74,23,74,20.4,73,18
		c-0.5-1.3-1.2-2.4-2.1-3.4c-0.1-0.1-0.2-0.2-0.3-0.3c-3.1-3.2-8-4.4-12.4-2.6c-4.4,1.8-7.1,6-7.1,10.5c0,0.1,0,0.3,0,0.5
		c0,1.3,0.3,2.6,0.8,3.9c1,2.4,2.7,4.3,4.8,5.5c0.1,0.1,0.2,0.1,0.4,0.2c1.3,0.7,2.8,1.2,4.2,1.3c-1.2,2.3-2.8,5.9-3.6,10.2
		c-1.7-0.4-3.4-1-5-1.8c-0.1-0.1-0.3-0.1-0.4-0.2c-3.2-1.7-6.1-4.2-8.2-7.3c-0.1-0.1-0.2-0.3-0.3-0.4c-0.7-1.1-1.3-2.3-1.8-3.6
		c-0.9-2.2-1.4-4.4-1.5-6.6c0-0.2,0-0.3,0-0.5v0c-0.5-9.1,4.8-18,13.8-21.6c9-3.6,18.9-0.9,24.9,6c0.1,0.1,0.2,0.2,0.3,0.3
		c1.4,1.7,2.6,3.7,3.5,5.9c0.5,1.3,0.9,2.6,1.2,3.9c0,0.1,0.1,0.3,0.1,0.5c0.1-0.1,0.3-0.2,0.4-0.3c3-2,6.3-3.8,9.7-5.2
		c1.1,3.7,1.5,7.5,1.3,11.2c-3.6,1.8-6.9,4-9.8,6.6c-0.1,0.1-0.2,0.2-0.3,0.3c-2.8,2.5-5.2,5.3-7.2,8.3c-0.1,0.1-0.2,0.2-0.3,0.4
		c-1.9,3-3.6,6.2-4.8,9.6c-0.1,0.1-0.1,0.3-0.1,0.4c-0.5,1.5-0.9,3-1.3,4.5h0c0,0.2-0.1,0.3-0.1,0.5c-0.4,2-0.8,3.9-0.9,6l0,0.5
		c0.1,0.1,0.3,0.2,0.4,0.3c1.5,1,3,2.1,4.3,3.3c0.1,0.1,0.2,0.2,0.4,0.3c2.7,2.5,5,5.5,6.8,8.9c0.1,0.1,0.1,0.3,0.2,0.4
		c0.4,0.8,0.8,1.7,1.1,2.5c1,2.5,1.7,5.1,2.1,7.7C86.2,84.7,86.2,84.8,86.2,85z"/>
	<path class="st1" d="M52,108.5"/>
</g>
<g>
	<g>
		<path class="st1" d="M139.4,72.9c-0.2,1-0.3,1.9-0.4,2.5c-0.1,0.6-0.2,1-0.3,1c-0.1,0-0.2-0.5-0.4-1.6c-0.1-1-0.2-1.7-0.3-1.8
			l-7.5-16h-15.8v28.6h8.8V65.4c0-0.2,0-0.6-0.1-0.9c-0.2-0.8-0.3-1.3-0.3-1.3c0-0.2,0.1-0.3,0.2-0.3c0.1,0,0.2,0.1,0.4,0.4
			c0.1,0.3,0.3,0.6,0.4,0.9l11,21.2h7.2l10.2-21.2c0.1-0.3,0.2-0.6,0.4-0.9c0.2-0.3,0.3-0.4,0.4-0.4c0.2,0,0.2,0.1,0.2,0.3
			c0,0.1-0.1,0.4-0.2,0.9c-0.1,0.5-0.2,0.9-0.2,1.3v20h8.8V56.9h-15L139.4,72.9z"/>
		<rect x="168.6" y="56.9" class="st1" width="8.8" height="28.6"/>
		<path class="st1" d="M199.7,63.8c3.8,0,6.3,0.3,7.4,0.8c0.9,0.5,1.3,1.5,1.3,3.2h8.8c0-5.1-0.8-8.2-2.5-9.4c-1.9-1.4-6.9-2-15.1-2
			c-8.2,0-13.2,0.8-15,2.3c-1.6,1.4-2.5,5.6-2.5,12.4c0,6.8,0.9,11,2.6,12.5c1.7,1.5,6.7,2.2,14.9,2.2c8.2,0,13.3-0.7,15.2-2
			c1.6-1.2,2.4-4.3,2.4-9.4h-8.8c0,1.7-0.5,2.8-1.4,3.3c-1,0.5-3.4,0.7-7.3,0.7c-4.3,0-6.8-0.3-7.6-1s-1.1-2.8-1.1-6.3
			c0-3.6,0.4-5.7,1.1-6.3C192.9,64.2,195.4,63.8,199.7,63.8z"/>
		<polygon class="st1" points="251.1,66.9 232.1,66.9 232.1,56.9 223.2,56.9 223.2,85.5 232.1,85.5 232.1,74.3 251.1,74.3 
			251.1,85.5 259.9,85.5 259.9,56.9 251.1,56.9 		"/>
		<path class="st1" d="M279.5,56.8l-14.2,28.6h10.3l2.7-4.8h17.5l2.7,4.8h10.3l-14.2-28.6H279.5z M281.7,73.3l4.8-10h1.4l4.8,10
			H281.7z"/>
		<polygon class="st1" points="322.5,56.8 313.7,56.8 313.7,85.4 342.5,85.4 342.5,78 322.5,78 		"/>
		<rect x="347.2" y="56.9" class="st1" width="8.8" height="28.6"/>
		<polygon class="st1" points="382.9,70.5 397.2,56.8 385.1,56.8 375.1,66.9 370.5,66.9 370.5,56.8 361.7,56.8 361.7,85.4 
			370.5,85.4 370.5,74.3 375.1,74.3 386.3,85.4 399,85.4 		"/>
	</g>
	<g>
		<g>
			<path class="st0" d="M127.7,43c-0.1,0.5-0.2,1-0.2,1.3c-0.1,0.3-0.1,0.5-0.2,0.5c-0.1,0-0.1-0.3-0.2-0.8c-0.1-0.5-0.1-0.9-0.2-1
				l-3.9-8.4h-8.3v15h4.6V39.1c0-0.1,0-0.3-0.1-0.5c-0.1-0.5-0.1-0.7-0.1-0.7c0-0.1,0-0.2,0.1-0.2c0.1,0,0.1,0.1,0.2,0.2
				s0.2,0.3,0.2,0.5l5.8,11.2h3.8l5.3-11.1c0.1-0.1,0.1-0.3,0.2-0.5c0.1-0.2,0.2-0.2,0.2-0.2c0.1,0,0.1,0.1,0.1,0.2
				c0,0,0,0.2-0.1,0.5c-0.1,0.3-0.1,0.5-0.1,0.7v10.5h4.6v-15h-7.9L127.7,43z"/>
			<polygon class="st0" points="189.4,49.6 205.6,49.6 205.6,46 194,46 194,43.9 205,43.9 205,40.3 194,40.3 194,38.2 205.6,38.2 
				205.6,34.6 189.4,34.6 			"/>
			<polygon class="st0" points="167.8,38.5 174.4,38.5 174.4,49.6 179,49.6 179,38.5 185.6,38.5 185.6,34.6 167.8,34.6 			"/>
			<path class="st0" d="M224.1,43.5c0,0.9-0.3,1.5-0.9,1.8c-0.6,0.3-1.9,0.4-4.1,0.4c-2.2,0-3.6-0.2-4.2-0.5
				c-0.5-0.2-0.8-0.8-0.8-1.7v-9.1h-4.6v9.1c0,2.7,0.6,4.4,1.8,5.1c1.1,0.6,3.7,1,7.8,1c4.1,0,6.7-0.3,7.8-1
				c1.2-0.7,1.8-2.4,1.8-5.1v-9.1h-4.6V43.5z"/>
			<path class="st0" d="M248.3,40.9c-1.1-0.6-3.6-0.9-7.4-0.9c-1.7,0-2.8-0.1-3.4-0.2c-0.6-0.2-0.8-0.5-0.8-1c0-0.5,0.2-0.8,0.5-0.9
				c0.3-0.1,1.5-0.1,3.6-0.1c2.1,0,3.3,0.1,3.6,0.2c0.4,0.1,0.5,0.6,0.5,1.4h4.6c0-2.9-1-4.6-2.9-5c-0.8-0.2-2.8-0.2-5.9-0.2
				c-3.5,0-5.7,0.2-6.7,0.7c-1.3,0.6-2,1.9-2,3.9c0,2.2,0.5,3.6,1.5,4.2s3.4,0.8,7.3,0.8c1.9,0,3.2,0.1,3.7,0.2
				c0.5,0.2,0.7,0.5,0.7,1.1c0,0.5-0.2,0.8-0.5,0.8s-1.6,0.1-3.9,0.1c-2.2,0-3.5-0.1-3.8-0.2s-0.6-0.6-0.6-1.5h-4.6
				c0,1.8,0.2,3,0.7,3.7c0.5,0.7,1.4,1.2,2.7,1.4c0.9,0.1,2.7,0.2,5.6,0.2c3.7,0,6.1-0.2,7.2-0.7c1.2-0.6,1.9-1.8,1.9-3.8
				C250,42.9,249.4,41.5,248.3,40.9z"/>
			<polygon class="st0" points="261.8,45.7 272.1,38.3 272.1,34.6 254.2,34.6 254.2,38.5 264,38.5 253.8,45.9 253.8,49.6 
				272.5,49.6 272.5,45.7 			"/>
			<path class="st0" d="M149.7,34.6l-7.4,15h5.4l1.4-2.5h9.2l1.4,2.5h5.4l-7.4-15H149.7z M150.8,43.2l2.5-5.2h0.7l2.5,5.2H150.8z"/>
		</g>
	</g>
</g>
</svg>
