<?xml version="1.0" encoding="utf-8"?>
<!-- Generator: Adobe Illustrator 27.0.0, SVG Export Plug-In . SVG Version: 6.00 Build 0)  -->
<svg version="1.1" id="Layer_1" xmlns="http://www.w3.org/2000/svg" xmlns:xlink="http://www.w3.org/1999/xlink" x="0px" y="0px"
	 viewBox="0 0 94.7 119.6" style="enable-background:new 0 0 94.7 119.6;" xml:space="preserve">
<style type="text/css">
	.st0{fill:#A0A0A0;}
	.st1{fill:#0093FF;}
</style>
<path class="st0" d="M61.9,107.4L61.9,107.4l-2.7,12.2l-7.8-10.4c-0.5-2-1.2-3.9-2.1-5.9c-1.3-2.9-2.9-5.7-4.8-8.4
	c-0.4-0.6-0.8-1.1-1.2-1.6c-2.1-2.7-4.5-5.4-7.3-7.8c-0.1-0.1-0.1-0.1-0.2-0.2c0.7-2.1,2.4-6.5,5.7-9.1l0,0
	c4.6,3.9,8.5,8.2,11.7,12.7c0.5,0.7,1,1.4,1.5,2.2c1.9,2.9,3.5,6,4.8,9.2c0.6,1.4,1.1,2.8,1.5,4.2C61.4,105.5,61.7,106.5,61.9,107.4
	L61.9,107.4z"/>
<path class="st1" d="M85.2,84.8c0.5,4,0.3,8.1-0.6,11.9c0,0.1,0,0.1,0,0.1c0,0.1-0.1,0.2-0.1,0.3c-0.8,3.2-2.1,6.2-3.8,9
	c-2-1.7-4.2-3.1-6.6-4.2c-1.7-0.8-3.5-1.4-5.4-1.9c-0.6-0.1-1.2-0.3-1.8-0.4c-0.9-0.2-1.8-0.3-2.8-0.4c-1.5-5.9-4.9-9.8-4.9-9.8
	c0.1,0,0.2,0,0.3,0c0.3,0,0.7,0,1,0c0.3,0,0.7,0,1,0c4.4,0,8.8,0.8,13,2.3c0.2-1.3,0.2-2.6,0.1-3.9c0-0.2,0-0.3,0-0.4
	c-0.1-1.4-0.3-2.9-0.7-4.3v0c-0.2-0.8-0.5-1.6-0.8-2.4c-0.3-0.8-0.7-1.6-1.1-2.3l0,0c-0.2-0.4-0.4-0.8-0.7-1.2
	c-0.1-0.1-0.2-0.3-0.2-0.4c-2.9-4.4-7.2-7.6-12-9.1c-0.2-0.1-0.3-0.1-0.5-0.1c-3.4-1-7.1-1.2-10.7-0.5c-0.2,0-0.3,0.1-0.5,0.1
	c-1.2,0.3-2.4,0.6-3.6,1.1c-0.5,0.2-1,0.4-1.5,0.7c-0.5,0.3-1,0.5-1.5,0.8c-1.2,0.7-2.3,1.5-3.4,2.4l-0.4,0.3
	c-0.1,0.1-0.2,0.2-0.2,0.2c-2.3,2.2-4.1,4.7-5.3,7.6c-0.1,0.2-0.2,0.4-0.3,0.6c-0.1,0.2-0.1,0.4-0.2,0.6c0,0.1-0.1,0.3-0.2,0.4v0.1
	c-0.1,0.4-0.3,0.9-0.4,1.3c-0.6,2.2-0.9,4.5-0.8,6.8c0.1,2.5,0.6,5,1.6,7.5c0.5,1.3,1.1,2.4,1.8,3.6c0.5-0.5,1-1,1.5-1.4
	c1.2-1.1,2.5-2.1,3.7-3c3.2,2.4,5.6,8,5.6,8c-1,0.7-1.9,1.4-2.8,2.2c-0.4,0.4-0.8,0.7-1.2,1.1c-2.6,2.6-4.6,5.6-6.1,8.8
	c-2.8-1.8-5.3-4.1-7.5-6.8c-2-2.5-3.8-5.4-5-8.5C18.1,93,18.4,84,21.6,76.3c0,0,0-0.1,0-0.1c0,0,0-0.1,0-0.1c0-0.1,0.1-0.2,0.1-0.2
	s0-0.1,0.1-0.2c1.6-3.7,3.7-6.7,5.8-9l0,0c0.1-0.1,0.2-0.2,0.3-0.3c0.1-0.1,0.2-0.2,0.2-0.2c0.7-0.7,1.4-1.4,2.1-2
	c2-1.8,4.2-3.3,6.6-4.5c0.1-0.1,0.3-0.1,0.4-0.2c0,0,0,0,0,0c-0.1-0.1-0.3-0.2-0.4-0.3h0c-3.1-2.1-6-4.5-8.6-7.4
	c-0.1-0.1-0.2-0.2-0.3-0.3c-2.3-2.6-4.4-5.6-6.1-8.8c0-0.1-0.1-0.3-0.2-0.4c-0.1,0.1-0.2,0.2-0.4,0.2c-3.1,2-5.9,4.3-8.5,6.9
	c-0.1,0.1-0.2,0.2-0.3,0.3c0.1,0.1,0.1,0.3,0.2,0.4c1.8,3.2,3.9,6.2,6.3,8.9c0.1,0.1,0.2,0.2,0.3,0.3c1.1,1.3,2.3,2.5,3.5,3.6l0,0
	c0.4,0.4,0.8,0.8,1.2,1.1c0,0,0,0,0,0c-3.5,2.8-5.4,6.1-6.5,8.5c0,0,0,0,0,0c-1.6-1.4-3.1-2.8-4.6-4.3c-0.1-0.1-0.2-0.2-0.3-0.3
	c-2.6-2.7-5-5.8-7.1-9c-0.1-0.1-0.2-0.3-0.3-0.4c-2.1-3.3-4-6.8-5.6-10.5c0,0,0,0,0,0c0,0,0,0,0,0c2.4-3.1,5.2-6,8.2-8.7
	c0.1-0.1,0.2-0.2,0.4-0.3c2.8-2.5,5.9-4.8,9.2-6.7c0.1-0.1,0.3-0.2,0.4-0.2c2.9-1.7,6-3.2,9.2-4.6c0.3-0.1,0.5-0.2,0.8-0.3
	c0.4,2.6,1.1,5.2,2.1,7.7c0.4,0.9,0.7,1.7,1.1,2.5c0.1,0.1,0.1,0.3,0.2,0.4c1.8,3.4,4,6.4,6.7,8.9c0.1,0.1,0.2,0.2,0.4,0.3
	c2.8,2.6,6.1,4.7,9.6,6.2c0.2,0,0.3,0.1,0.4,0.2c3.3,1.3,6.8,2.2,10.4,2.4c0,0,0.8-5,3.3-11.5c1.8-4.7,4.3-10.2,8.1-15.2
	c0,0,0,0,0.1-0.1c0.8-1,1.3-2.1,1.7-3.3c0.1-0.1,0.1-0.3,0.1-0.4c0.6-2.3,0.6-4.9-0.4-7.3c-0.5-1.3-1.2-2.4-2.1-3.4
	c-0.1-0.1-0.2-0.2-0.3-0.3c-3.1-3.2-8-4.4-12.4-2.6c-4.4,1.8-7.1,6-7.1,10.5c0,0.1,0,0.3,0,0.5c0,1.3,0.3,2.6,0.8,3.9
	c1,2.4,2.7,4.3,4.8,5.5c0.1,0.1,0.2,0.1,0.4,0.2c1.3,0.7,2.8,1.2,4.2,1.3c-1.2,2.3-2.8,5.9-3.6,10.2c-1.7-0.4-3.4-1-5-1.8
	c-0.1-0.1-0.3-0.1-0.4-0.2c-3.2-1.7-6.1-4.2-8.2-7.3c-0.1-0.1-0.2-0.3-0.3-0.4c-0.7-1.1-1.3-2.3-1.8-3.6c-0.9-2.2-1.4-4.4-1.5-6.6
	c0-0.2,0-0.3,0-0.5v0c-0.5-9.1,4.8-18,13.8-21.6c9-3.6,18.9-0.9,24.9,6c0.1,0.1,0.2,0.2,0.3,0.3c1.4,1.7,2.6,3.7,3.5,5.9
	c0.5,1.3,0.9,2.6,1.2,3.9c0,0.1,0.1,0.3,0.1,0.5c0.1-0.1,0.3-0.2,0.4-0.3c3-2,6.3-3.8,9.7-5.2c1.1,3.7,1.5,7.5,1.3,11.2
	c-3.6,1.8-6.9,4-9.8,6.6c-0.1,0.1-0.2,0.2-0.3,0.3c-2.8,2.5-5.2,5.3-7.2,8.3c-0.1,0.1-0.2,0.2-0.3,0.4c-1.9,3-3.6,6.2-4.8,9.6
	c-0.1,0.1-0.1,0.3-0.1,0.4c-0.5,1.5-0.9,3-1.3,4.5h0c0,0.2-0.1,0.3-0.1,0.5c-0.4,2-0.8,3.9-0.9,6l0,0.5c0.1,0.1,0.3,0.2,0.4,0.3
	c1.5,1,3,2.1,4.3,3.3c0.1,0.1,0.2,0.2,0.4,0.3c2.7,2.5,5,5.5,6.8,8.9c0.1,0.1,0.1,0.3,0.2,0.4c0.4,0.8,0.8,1.7,1.1,2.5
	c1,2.5,1.7,5.1,2.1,7.7C85.2,84.5,85.2,84.6,85.2,84.8z"/>
<path class="st1" d="M51.1,108.3"/>
</svg>
